<svg xmlns="http://www.w3.org/2000/svg" width="30" height="30" viewBox="0 0 144.083 144">
    <path fill="#fff" d="M41.143 59.11h14.078v36.734H41.143z"></path>
    <ellipse fill="#fff" cx="48.042" cy="46.75" rx="7.125" ry="6.5"></ellipse>
    <path fill="#fff" d="M90.608 58.28c-2.883 0-5.326.525-7.334 1.574-2.006 1.05-3.988 2.796-5.949 5.24V59.11h-13.11v36.734h14.078V78.203c0-3.344.531-5.66 1.592-6.952 1.061-1.291 2.443-1.937 4.15-1.937 1.545 0 2.744.479 3.598 1.436.854.957 1.279 2.588 1.279 4.895v20.199h14.148V72.497c0-4.843-1.102-8.423-3.305-10.741-2.2-2.318-5.251-3.476-9.147-3.476z"></path>
</svg>
